<svg xmlns="http://www.w3.org/2000/svg" width="800" height="600" viewBox="0 0 800 600" role="img" aria-label="Visages">
  <defs>
    <linearGradient id="sky" x1="0" y1="0" x2="0" y2="1">
      <stop offset="0%" stop-color="#1a1d2e"/>
      <stop offset="100%" stop-color="#0d0e18"/>
    </linearGradient>
  </defs>
  <rect width="800" height="600" fill="url(#sky)"/>
  
    <g>
      <ellipse cx="220.0" cy="216.0" rx="54.0" ry="62.1" fill="#d6b48a" stroke="#0f1018" stroke-width="0.8"/>
      <ellipse cx="202.7" cy="207.9" rx="5.4" ry="4.3" fill="#1f2030"/>
      <ellipse cx="237.3" cy="207.9" rx="5.4" ry="4.3" fill="#1f2030"/>
      <path d="M 206.5 234.9 Q 220.0 243.0, 233.5 234.9" stroke="#1f2030" stroke-width="1.5" fill="none"/>
      <path d="M 193.0 183.6 Q 220.0 167.4, 247.0 183.6 L 247.0 199.8 L 193.0 199.8 Z" fill="#3a2a1a"/>
    </g>

    <g>
      <ellipse cx="496.0" cy="231.0" rx="50.4" ry="58.0" fill="#d6b48a" stroke="#0f1018" stroke-width="0.8"/>
      <ellipse cx="479.9" cy="223.4" rx="5.0" ry="4.0" fill="#1f2030"/>
      <ellipse cx="512.1" cy="223.4" rx="5.0" ry="4.0" fill="#1f2030"/>
      <path d="M 483.4 248.6 Q 496.0 256.2, 508.6 248.6" stroke="#1f2030" stroke-width="1.5" fill="none"/>
      <path d="M 470.8 200.8 Q 496.0 185.6, 521.2 200.8 L 521.2 215.9 L 470.8 215.9 Z" fill="#3a2a1a"/>
    </g>

    <g>
      <ellipse cx="672.0" cy="234.0" rx="43.2" ry="49.7" fill="#d6b48a" stroke="#0f1018" stroke-width="0.8"/>
      <ellipse cx="658.2" cy="227.5" rx="4.3" ry="3.5" fill="#1f2030"/>
      <ellipse cx="685.8" cy="227.5" rx="4.3" ry="3.5" fill="#1f2030"/>
      <path d="M 661.2 249.1 Q 672.0 255.6, 682.8 249.1" stroke="#1f2030" stroke-width="1.5" fill="none"/>
      <path d="M 650.4 208.1 Q 672.0 195.1, 693.6 208.1 L 693.6 221.0 L 650.4 221.0 Z" fill="#3a2a1a"/>
    </g>
  <g>
    <rect x="8" y="8" width="200" height="22" rx="3" fill="rgba(0,0,0,0.6)"/>
    <text x="14" y="23" font-family="monospace" font-size="11" fill="#e8e8ef">Visages</text>
  </g>
</svg>