<svg xmlns="http://www.w3.org/2000/svg" width="800" height="600" viewBox="0 0 800 600" role="img" aria-label="Voitures">
  <defs>
    <linearGradient id="sky" x1="0" y1="0" x2="0" y2="1">
      <stop offset="0%" stop-color="#1a1d2e"/>
      <stop offset="100%" stop-color="#0d0e18"/>
    </linearGradient>
  </defs>
  <rect width="800" height="600" fill="url(#sky)"/>
  
    <g transform="translate(40.0 240.0)">
      <path d="M 0 134.4
               L 26.9 48.0
               L 112.0 28.8
               L 168.0 48.0
               L 224.0 134.4 Z"
            fill="#3a4060" stroke="#0f1018" stroke-width="0.8"/>
      <path d="M 40.3 57.6
               L 62.7 86.4
               L 129.9 86.4
               L 152.3 57.6 Z"
            fill="#0a0a12" opacity="0.85"/>
      <rect x="0" y="134.4" width="224.0" height="38.4" fill="#2a2c3a"/>
      <circle cx="49.3" cy="176.6" r="25.0" fill="#0f1018"/>
      <circle cx="174.7" cy="176.6" r="25.0" fill="#0f1018"/>
    </g>

    <g transform="translate(288.0 252.0)">
      <path d="M 0 138.6
               L 28.8 49.5
               L 120.0 29.7
               L 180.0 49.5
               L 240.0 138.6 Z"
            fill="#3a4060" stroke="#0f1018" stroke-width="0.8"/>
      <path d="M 43.2 59.4
               L 67.2 89.1
               L 139.2 89.1
               L 163.2 59.4 Z"
            fill="#0a0a12" opacity="0.85"/>
      <rect x="0" y="138.6" width="240.0" height="39.6" fill="#2a2c3a"/>
      <circle cx="52.8" cy="182.2" r="25.7" fill="#0f1018"/>
      <circle cx="187.2" cy="182.2" r="25.7" fill="#0f1018"/>
    </g>

    <g transform="translate(560.0 228.0)">
      <path d="M 0 151.2
               L 26.9 54.0
               L 112.0 32.4
               L 168.0 54.0
               L 224.0 151.2 Z"
            fill="#3a4060" stroke="#0f1018" stroke-width="0.8"/>
      <path d="M 40.3 64.8
               L 62.7 97.2
               L 129.9 97.2
               L 152.3 64.8 Z"
            fill="#0a0a12" opacity="0.85"/>
      <rect x="0" y="151.2" width="224.0" height="43.2" fill="#2a2c3a"/>
      <circle cx="49.3" cy="198.7" r="28.1" fill="#0f1018"/>
      <circle cx="174.7" cy="198.7" r="28.1" fill="#0f1018"/>
    </g>
  <g>
    <rect x="8" y="8" width="200" height="22" rx="3" fill="rgba(0,0,0,0.6)"/>
    <text x="14" y="23" font-family="monospace" font-size="11" fill="#e8e8ef">Voitures</text>
  </g>
</svg>