<svg xmlns="http://www.w3.org/2000/svg" width="800" height="600" viewBox="0 0 800 600" role="img" aria-label="Outils mécaniques">
  <defs>
    <linearGradient id="sky" x1="0" y1="0" x2="0" y2="1">
      <stop offset="0%" stop-color="#1a1d2e"/>
      <stop offset="100%" stop-color="#0d0e18"/>
    </linearGradient>
  </defs>
  <rect width="800" height="600" fill="url(#sky)"/>
  
    <g transform="translate(80.0 210.0)">
      <rect x="26.4" y="72.0" width="123.2" height="32.4" fill="#9a9eaa" stroke="#0f1018" stroke-width="0.8" rx="3"/>
      <circle cx="21.1" cy="88.2" r="39.6" fill="#9a9eaa" stroke="#0f1018" stroke-width="0.8"/>
      <circle cx="21.1" cy="88.2" r="18.0" fill="#0d0e18"/>
      <circle cx="154.9" cy="88.2" r="45.0" fill="#9a9eaa" stroke="#0f1018" stroke-width="0.8"/>
      <rect x="126.7" y="54.0" width="31.7" height="9.0" fill="#0d0e18"/>
    </g>

    <g transform="translate(320.0 240.0)">
      <rect x="21.6" y="76.8" width="100.8" height="34.6" fill="#9a9eaa" stroke="#0f1018" stroke-width="0.8" rx="3"/>
      <circle cx="17.3" cy="94.1" r="42.2" fill="#9a9eaa" stroke="#0f1018" stroke-width="0.8"/>
      <circle cx="17.3" cy="94.1" r="19.2" fill="#0d0e18"/>
      <circle cx="126.7" cy="94.1" r="48.0" fill="#9a9eaa" stroke="#0f1018" stroke-width="0.8"/>
      <rect x="103.7" y="57.6" width="25.9" height="9.6" fill="#0d0e18"/>
    </g>

    <g transform="translate(520.0 210.0)">
      <rect x="30.0" y="72.0" width="140.0" height="32.4" fill="#9a9eaa" stroke="#0f1018" stroke-width="0.8" rx="3"/>
      <circle cx="24.0" cy="88.2" r="39.6" fill="#9a9eaa" stroke="#0f1018" stroke-width="0.8"/>
      <circle cx="24.0" cy="88.2" r="18.0" fill="#0d0e18"/>
      <circle cx="176.0" cy="88.2" r="45.0" fill="#9a9eaa" stroke="#0f1018" stroke-width="0.8"/>
      <rect x="144.0" y="54.0" width="36.0" height="9.0" fill="#0d0e18"/>
    </g>
  <g>
    <rect x="8" y="8" width="200" height="22" rx="3" fill="rgba(0,0,0,0.6)"/>
    <text x="14" y="23" font-family="monospace" font-size="11" fill="#e8e8ef">Outils mécaniques</text>
  </g>
</svg>